<svg xmlns="http://www.w3.org/2000/svg" width="40" height="40" viewBox="0 0 40 40">
  <rect width="40" height="40" rx="6" ry="6" fill="currentColor"/>
  <path d="M0 0h40v40H0zm6.2 6.467c-.701.876-.964 1.703-.959 2.82l-.001.286v.782l-.001.845v3.582q-.001 1.825.001 3.649v3.128l-.001 4.024v.193l-.001 1.343.001 1.637v.835q-.001.383.001.765l-.001.405c.007 1.119.342 2.144 1.13 2.96.877.78 1.819 1.033 2.965 1.03l.285.001h.781l.843.001 1.651.001 1.924.001h3.641q1.665 0 3.329.002l3.42.002 1.919.001q.817.001 1.634 0h1.597l.404.001c1.078-.006 2.119-.318 2.908-1.084.657-.72 1.071-1.634 1.072-2.616l.001-.244v-1.331l.001-.842.001-1.65v-1.341l.001-3.802v-.414l.002-3.326q.002-1.708.001-3.415l.001-1.917V9.551l.001-.405c-.003-.673-.088-1.216-.397-1.815l-.072-.141c-.455-.864-1.221-1.478-2.149-1.79-.539-.143-1.063-.152-1.618-.151l-.286-.001h-.781l-.844-.001-1.651-.001H21.39q-1.665 0-3.329-.002l-3.42-.002-1.919-.001q-.817-.001-1.634 0H9.492l-.405-.001c-1.079.007-2.151.413-2.887 1.227" fill="none"/>
  <!-- reduz o grupo central em 10% ao redor do centro (20,20) -->
  <g fill="#FFF" transform="translate(20,20) scale(0.8) translate(-20,-20)">
    <path d="m12.395 2.473.204-.001h.68l.488-.001 1.186-.001h3.996q1.196.001 2.392-.002l2.456-.002 1.379-.001h1.296l.476-.001q.324-.001.65.001l.19-.002c.377.007.595.059.894.312.224.274.232.527.225.869l-.001.151-.006.473-.002.322q-.004.393-.011.785l.167-.001 1.568-.009.806-.005.781-.004.295-.002c.888-.009 1.835.041 2.63.475l.137.071c.411.223.746.503 1.069.841l.131.127c.877.907 1.063 2.08 1.058 3.287l.001.35v.957l.001 1.032q.002 1.01.001 2.022l.001 2.116v.238l.001 4.453q0 2.038.004 4.076.004 2.093.004 4.185l.002 2.35q.002 1 0 1.999-.002.511.001 1.02.002.467 0 .933l.001.338q.001.23-.001.459v.258c-.055.286-.158.387-.385.564a3 3 0 0 1-.578.043h-.167l-.348-.002q-.266-.002-.532 0l-.338-.002-.16.001c-.244-.006-.38-.019-.576-.17-.184-.25-.182-.4-.182-.709v-.133l.001-.438v-.303l.001-.798.001-.957.004-1.454h-1.982v.889c-.084.302-.145.429-.386.627-.268.147-.428.158-.733.153l-.141-.001-.441-.008-.301-.004-.73-.015.005.265.011.973.006.421q.005.303.006.606l.005.189c0 .291-.005.446-.161.698-.155.141-.211.176-.416.169h-.137c-.137-.039-.137-.039-.411-.313v-3.008H11.523v3.008c-.273.268-.273.268-.411.308h-.137l-.137.005c-.224-.07-.288-.187-.411-.385-.037-.226-.032-.448-.027-.677l.001-.196q.002-.309.008-.618l.004-.42.013-1.028-.188.005q-.348.007-.695.011l-.3.006q-.216.005-.433.006l-.263.005c-.286-.037-.429-.124-.651-.305-.296-.464-.205-.758-.205-1.367H5.713l.012.989.005.622q.002.492.009.986.006.397.007.796l.004.303.002.425.002.244c-.054.281-.16.383-.383.556a3 3 0 0 1-.575.046l-.166.001q-.174 0-.347-.002-.264-.002-.53.002l-.338-.001-.159.002c-.258-.006-.396-.032-.601-.191-.195-.246-.2-.368-.2-.678l-.001-.145q-.001-.24.001-.481l-.001-.348q-.001-.478.001-.957V33.72q-.001-1.01.001-2.022l.001-2.354q0-2.1.004-4.201.004-2.038.002-4.075-.001-2.219.001-4.437v-2.349l.002-2.001.001-1.021.001-.935v-.337c-.001-1.24.289-2.327 1.177-3.237l.154-.149.122-.13c.278-.273.595-.46.937-.641l.124-.069c.814-.407 1.769-.423 2.66-.413l.303.001.786.005.807.005q.788.004 1.575.011l-.005-.201-.011-.741-.006-.32q-.005-.231-.006-.461l-.003-.142c0-.345.083-.539.305-.8.316-.256.621-.235 1.008-.232m-.188 1.12v4.102l1.692.027.319.007.167.001c.393.011.393.011.538.13.108.134.12.211.122.383l.007.141c-.041.131-.041.131-.177.24-.275.128-.505.124-.805.12h-.175l-.364-.002-.554-.001-.355-.001h-.166c-.43-.006-.781-.037-1.128-.316-.241-.326-.198-.743-.2-1.132l-.005-.241-.009-.587-1.726-.007-.802-.004-.775-.002-.294-.001c-1.188-.008-2.131.161-3.017 1.012-.804.859-.975 1.752-.975 2.899h32.949c0-1.105-.152-1.96-.889-2.802l-.104-.128c-.532-.603-1.307-.869-2.084-.966a18 18 0 0 0-1.06-.013h-.3l-.783.004-.802.002-1.567.007-.001.151-.012.679-.001.237c-.018.65-.018.65-.198.895-.348.279-.719.313-1.154.313l-.139.001h-.455l-.328.001h-1.818l-1.561-.001h-4.279l-.869-.001h-.319l-.435-.001h-.246a1.3 1.3 0 0 1-.556-.154c-.103-.204-.076-.39-.069-.615l.069-.205 11.279-.069V3.594zm-8.613 7.861v24.952H4.62V11.455zm2.119 0v20.029h1.982l.205-.82c.197-.368.422-.615.819-.757.336-.091.677-.095 1.022-.106l.688-.026v-2.256l-1.223-.027-.232-.007-.237-.006a1.3 1.3 0 0 1-.632-.235c-.186-.302-.231-.532-.232-.884l-.001-.138v-.448l-.001-.313.001-.655q.001-.419-.001-.838v-.956l.001-.432v-.247c.035-.298.142-.476.359-.679.275-.162.567-.162.88-.162l.239-.001h1.308l.827-.001 1.619-.001h1.316l3.732-.001h.407l3.266-.001 3.352-.001 1.882-.001h3.169l.399-.001c.944.004.944.004 1.292.287.201.254.189.482.19.796l.001.138.002.45.001.314.001.657.004.84.002.648.001.31v.434l.001.25a1.4 1.4 0 0 1-.23.637c-.288.193-.526.232-.869.24l-.232.007-.292.005-.93.022v2.256l.896.027c.6.023 1.065.156 1.497.589.236.363.251.637.342 1.094h1.982l.008-.561.011-.538.006-.373.009-.537.001-.169c.011-.391.011-.391.128-.534.153-.124.257-.149.453-.159.314.151.314.151.411.342a5 5 0 0 1 .011.3l.002.19.001.21.002.221.006.723.005.501.011 1.32.011 1.345.021 2.643h1.094V11.455h-1.094v.24l-.018 6.346v.14l-.006 2.242-.007 2.3-.004 1.292-.004 1.216-.001.447-.002.609.001.18c-.002.243-.005.398-.124.613-.135.124-.201.135-.383.13h-.141c-.172-.039-.228-.099-.337-.235a6 6 0 0 1-.027-.614l-.001-.193-.001-.642-.002-.467-.002-1.252-.004-1.172-.008-3.434-.026-7.746zm3.213 11.074v3.897h22.148v-3.897zm2.598 4.99v2.256h16.953v-2.256zM8.789 31.21v1.915h22.423c.159-1.649.159-1.649-.205-2.188-.174-.088-.296-.077-.492-.078l-.23-.001h-.254l-.268-.001-.741-.001-.798-.002-1.929-.004-.545-.001-4.16-.005h-.196l-3.152-.006-3.235-.005-1.818-.004q-.774-.004-1.547-.002l-.79-.001a70 70 0 0 0-.855 0l-.253-.002-.231.002h-.2c-.238.039-.238.039-.524.384"/>
    <path d="m14.156 5.063.158-.001q.261-.001.523.001l.375-.001h2.081q.894-.001 1.787.001h2.067q.887-.002 1.774-.001h1.06q.498-.001.996.001h.366q.25-.001.499.001l.147-.002c.232.004.348.022.533.167.179.24.139.397.106.691-.124.183-.197.202-.411.273a12 12 0 0 1-.495.009l-.154.001-.511.001-.366.001-.996.001-.622.001-1.945.002q-1.123 0-2.247.004l-1.736.002-1.037.001-.975.001-.358.001h-.489l-.144.001c-.32-.004-.549-.07-.779-.3-.041-.492-.041-.492.106-.691.223-.173.411-.168.68-.165"/>
  </g>
</svg>