<svg xmlns="http://www.w3.org/2000/svg" width="48" height="96" viewBox="0 0 48 96">
  <path d="M8.4 2.4h31.2v43.2H8.4z" fill="#385DA8"/>
  <path d="M12.768 6.288h22.464v23.136H12.768z" fill="#FEFEFE"/>
  <path d="m9.536 1.182.154-.001h.51l.37-.001h1.997l2.133-.002h7.211q2.095.001 4.19-.001l5.334-.001 1.866-.001h3.308l.887.001h.359c1.393-.005 1.393-.005 1.937.454.313.328.491.725.491 1.178l.001.188-.001.206v2.65l.001 1.724.001 3.258.001 3.421.001 6.708.002 6.145.001 1.644.001 5.87v.18l.001 2.872v2.886l.001 1.715v2.605c.004.58-.091 1.062-.505 1.489-.419.349-.847.454-1.382.45l-.154.001h-.511l-.37.001h-2.002l-2.137.001h-7.225q-2.099-.001-4.198.001l-5.219.001h-.125l-1.87.001h-3.311l-.888-.001h-.359q-.244.001-.488-.001l-.142.001a1.78 1.78 0 0 1-1.248-.505c-.396-.485-.454-.924-.45-1.534l-.001-.221v-4.153l-.001-3.078V27.027q.001-3.072-.001-6.143l-.001-1.548v-6.145L7.703 10.5V3.12c-.004-.577.091-1.061.505-1.488.412-.337.805-.454 1.328-.45m-.08 1.794c-.112.167-.108.232-.108.43l-.001.182.001.202v2.575l-.001 1.676-.001 3.168-.001 3.149v.176l-.001 4.919v1.694l-.002 5.88-.002 7.303v.175l-.001 2.791v2.803l-.001 1.667v2.532q-.001.14.001.282v.157c.03.174.095.254.216.379.109.055.169.054.292.054h2.13l1.048.001 2.533.001h1.198l5.261.001 4.163.002 4.88.002h.12l1.915.001h1.924l1.144.001h1.667l.137.001c.232-.002.394-.008.58-.163.112-.167.108-.232.108-.43l.001-.182-.001-.202v-2.575l.001-1.676.001-3.168.001-3.149v-.176l.001-6.047v-.566l.002-5.88.002-7.478.001-2.791V7.896l.001-1.667V3.697q.001-.14-.001-.282v-.157c-.03-.175-.092-.254-.216-.379a1 1 0 0 0-.346-.054h-2.128l-1.046-.001-2.528-.001" fill="#F8FBFD"/>
  <path d="m9.536 1.182.154-.001h.51l.37-.001h1.997l2.133-.002h7.211q2.095.001 4.19-.001l5.334-.001 1.866-.001h3.308l.887.001h.359c1.393-.005 1.393-.005 1.937.454.313.328.491.725.491 1.178l.001.188-.001.206v2.65l.001 1.724.001 3.258.001 3.421.001 6.708.002 6.145.001 1.644.001 5.87v.18l.001 2.872v2.886l.001 1.715v2.605c.004.58-.091 1.062-.505 1.489-.419.349-.847.454-1.382.45l-.154.001h-.511l-.37.001h-2.002l-2.137.001h-7.225q-2.099-.001-4.198.001l-5.219.001h-.125l-1.87.001h-3.311l-.888-.001h-.359q-.244.001-.488-.001l-.142.001a1.78 1.78 0 0 1-1.248-.505c-.396-.485-.454-.924-.45-1.534l-.001-.221v-4.153l-.001-3.078V27.027q.001-3.072-.001-6.143l-.001-1.548v-6.145L7.703 10.5V3.12c-.004-.577.091-1.061.505-1.488.412-.337.805-.454 1.328-.45M8.64 2.4c-.197.317-.294.592-.294.964v1.835l-.001 1.277-.001 1.53-.002 3.697-.001 1.748-.002 6.359v1.321l-.004 6.076-.002 7.301-.002 2.795-.001 2.808-.001 1.669v2.536c-.004.563.066 1.032.467 1.45.368.34.725.382 1.202.379h.644l.359.001h.78l1.16.001 2.194.001 2.182.001h.122l3.409.001h1.174l4.07.002 5.06.002h.121l1.932.001h1.942l1.153.001h1.21q.238.001.474-.001l.137.001c.431-.005.804-.133 1.12-.431.41-.438.427-.929.425-1.5l.001-.215v-4.038l.001-2.995V26.856q-.001-2.941.001-5.881l.001-7.31v-.175l.001-2.62V3.691c.004-.552-.064-1.032-.457-1.445-.272-.235-.569-.377-.93-.377h-1.276l-.887-.001-1.062-.001-2.568-.002-1.214-.001-4.417-.002h-.918l-4.22-.004-5.072-.002-1.942-.002-1.95-.001-1.159-.001h-.865l-.35-.001h-.475l-.138-.001c-.463.004-.822.205-1.129.552" fill="#375CA5"/>
  <path d="m15.64 14.676.174-.001h.192l.204-.001.56-.001.604-.001 1.321-.001.824-.001 2.282-.002h.742q1.193 0 2.386-.004l2.448-.002 1.375-.002q.586-.002 1.17-.001l.598-.001h.547l.292-.001c.472.005.472.005.649.148a.7.7 0 0 1 .187.318l.032.114.029.126.034.137q.054.227.104.455.113.515.246 1.024c.282 1.064.384 2.132.384 3.233h-1.632l-.144-.768c-.173-.374-.335-.569-.72-.72a1.6 1.6 0 0 0-1.056.048c-.331.215-.463.442-.576.816l-.096.624h-8.736l-.144-.72c-.094-.22-.094-.22-.192-.384l-.048-.144c-.084-.052-.084-.052-.192-.096l-.125-.073a1.3 1.3 0 0 0-.583-.097h-.115c-.328.011-.563.09-.809.314-.244.275-.324.635-.362.992l-.013.118-.008.09q-.466.007-.93.011l-.317.004-.455.005-.143.002c-.209 0-.33-.001-.512-.11-.168-.191-.146-.389-.145-.629v-.098c0-.274.014-.546.03-.82q.029-.556.037-1.114l.002-.152.008-.62c.006-.514.014-1.027.062-1.538l.008-.108c.011-.098.011-.098.049-.254.152-.107.289-.108.472-.108" fill="#242326"/>
  <path d="M27.925 15.306h2.116a.36.36 0 0 1 .199.054c.073.35.054.728.058 1.086l.002.126c0 .294-.04.565-.107.852-.449.15-.98.107-1.45.108l-.332.004-.214.001-.1.002a1.1 1.1 0 0 1-.373-.062c-.126-.167-.1-.349-.096-.553v-.134l.002-.282.004-.433.002-.274.001-.132c.006-.364.006-.364.287-.364" fill="#FCFCFB"/>
  <path d="M24.842 15.306h2.022c.108.006.2.024.304.054.062.191.055.384.056.582v.353l.002.364v.232l.001.109a.9.9 0 0 1-.108.473l-1.04.005-.354.002-.509.002-.161.001h-.149l-.131.001c-.104-.012-.104-.012-.2-.108-.012-.088-.012-.088-.012-.196v-.122l.001-.132v-.134l.001-.282.001-.434.001-.274v-.132c.002-.365.002-.365.275-.365m-6.113-.005.133.001h.151l.164.001h.168l.532.002.36.001q.442.001.882.005c.064.296.056.592.056.893l.002.314v.203l.001.185a2.6 2.6 0 0 1-.108.565q-.509.006-1.018.008l-.347.002-.497.004-.157.002h-.145l-.128.001c-.109-.017-.109-.017-.194-.078-.106-.15-.078-.337-.076-.514v-.128l.001-.268.001-.41.001-.259v-.125c.005-.384.005-.384.217-.408" fill="#FDFDFD"/>
  <path d="M15.648 15.312q.509-.006 1.018-.008l.347-.002.497-.004.157-.002h.145l.128-.001c.108.017.108.017.194.079.102.144.079.318.078.488v.121l-.001.253q-.001.193.001.386l-.001.246.001.116c-.002.211-.012.337-.164.488-.11.023-.11.023-.241.022h-.149l-.16-.004-.164-.001-.52-.006-.352-.002q-.432-.004-.863-.01c-.086-.258-.056-.538-.056-.808l-.002-.326v-.21l-.001-.192a3 3 0 0 1 .108-.624" fill="#F9F9F9"/>
  <path d="M21.834 15.306h2.162c.1.006.1.006.148.054q.007.221.006.443v1.487c-.006.086-.006.086-.054.182H21.6c-.055-.109-.054-.169-.054-.292v-1.511c.001-.365.001-.365.288-.365" fill="#FBFBFB"/>
  <path d="M30.601 18.953c.286.162.449.421.551.727.046.389-.017.684-.24 1.008-.192.22-.408.314-.695.352a1.14 1.14 0 0 1-.889-.304 1.3 1.3 0 0 1-.192-.336l-.06-.11a1.18 1.18 0 0 1 .04-.814c.304-.532.908-.716 1.486-.523" fill="#242426"/>
  <path d="M19.266 18.964c.286.211.478.463.558.812a1.2 1.2 0 0 1-.206.862.98.98 0 0 1-.562.386c-.428.052-.707-.034-1.044-.294a1.32 1.32 0 0 1-.3-1.002c.067-.337.251-.527.528-.72.301-.157.707-.145 1.026-.044" fill="#232325"/>
  <path d="M30.72 15.312h1.008l.138.57.04.161.11.469.031.13c.065.293.065.517.065.83h-1.344c-.055-.11-.054-.173-.054-.296v-.125l.001-.136v-.138l.001-.439.001-.296z" fill="#FBFBFB"/>
  <path fill="#555" d="M22.0 46.8h3.6a.6.6 0 0 1 .6.6v35.8a.6.6 0 0 1-.6.6h-3.6a.6.6 0 0 1-.6-.6V47.4a.6.6 0 0 1 .6-.6"/>
</svg>
