<svg version="1.1" xmlns="http://www.w3.org/2000/svg" width="600" height="600">
<path d="M0 0 C198 0 396 0 600 0 C600 198 600 396 600 600 C402 600 204 600 0 600 C0 402 0 204 0 0 Z " fill="#0197DB" transform="translate(0,0)"/>
<path d="M0 0 C198 0 396 0 600 0 C600 198 600 396 600 600 C402 600 204 600 0 600 C0 402 0 204 0 0 Z M93 97 C82.48544745 110.13271803 78.53364422 122.54083704 78.61904907 139.29525757 C78.61558714 140.72664516 78.61081899 142.15803007 78.60486734 143.58940947 C78.59240088 147.50006817 78.59850776 151.41050583 78.60782599 155.32116508 C78.61463422 159.5475854 78.6041264 163.77396861 78.59588623 168.00038147 C78.58256489 176.27153879 78.5854197 184.54261432 78.59412415 192.81377481 C78.6009075 199.53874553 78.6018146 206.26369337 78.5985527 212.98866653 C78.598093 213.94689731 78.59763331 214.90512809 78.59715968 215.89239616 C78.59620047 217.83923105 78.59522783 219.78606594 78.5942419 221.73290081 C78.58569245 239.97782182 78.59551468 258.22269757 78.611643 276.46761115 C78.62504148 292.10831292 78.6227211 307.74894788 78.60888672 323.38964844 C78.59281564 341.56751213 78.5865209 359.74533616 78.59572351 377.92320597 C78.59667912 379.86337129 78.59762223 381.80353661 78.5985527 383.74370193 C78.59901553 384.69820978 78.59947836 385.65271762 78.59995521 386.63614994 C78.60254083 393.34874524 78.59818324 400.06131531 78.59111404 406.77390671 C78.58268167 414.96064749 78.58501545 423.14730203 78.60095628 431.334033 C78.60881632 435.50768654 78.61196953 439.68119653 78.60200882 443.85484886 C78.59301389 447.68185244 78.59807295 451.50858055 78.61394148 455.33555944 C78.61883527 457.36223151 78.60913577 459.38892297 78.59876978 461.41557443 C78.70584475 478.20191184 83.72953764 493.57702113 95.546875 505.81640625 C108.69612972 517.52091801 122.8390767 521.31007359 140.01678467 521.26069641 C141.44231976 521.2637198 142.86785322 521.26761022 144.29338384 521.27228898 C148.19711434 521.28255381 152.10075285 521.28039101 156.00449085 521.27610838 C160.22003477 521.27363836 164.4355567 521.28265883 168.65109253 521.29014587 C176.90512673 521.30288786 185.1591284 521.30468713 193.41317078 521.30234561 C200.12436089 521.3005615 206.83554112 521.3023141 213.54673004 521.30657005 C214.50245644 521.30716524 215.45818283 521.30776043 216.44287063 521.30837366 C218.38455159 521.30958543 220.32623254 521.31079957 222.26791349 521.31201603 C240.47323181 521.32288994 258.6785316 521.32072996 276.88385096 521.31463119 C293.52656459 521.30946388 310.16921965 521.32071282 326.81192169 521.33972941 C343.91158609 521.3591179 361.01122279 521.36736192 378.11089826 521.36360615 C387.70660914 521.36169543 397.3022702 521.36416904 406.89797211 521.37832069 C415.06828679 521.39024844 423.23852099 521.39162386 431.40883681 521.37953053 C435.57437946 521.37365123 439.73977501 521.37251599 443.90530777 521.38453293 C447.72498334 521.39542366 451.54438954 521.39225077 455.36405268 521.37827124 C457.38684838 521.37439142 459.40965619 521.38514538 461.43242335 521.39656812 C477.60741884 521.30135126 493.21601758 516.6209385 505.046875 505.140625 C514.90171308 494.33972246 521.11866122 480.63548826 521.12863445 465.89885998 C521.1318589 464.6906925 521.13508335 463.48252503 521.1384055 462.23774642 C521.1368569 460.91898538 521.1353083 459.60022435 521.13371277 458.24150085 C521.13558173 456.81968002 521.13788278 455.39785969 521.14057809 453.97604018 C521.14669191 450.07342296 521.14656299 446.17082716 521.14538372 442.26820624 C521.1451796 438.05746291 521.15069947 433.84672645 521.15544128 429.63598633 C521.16374608 421.38803915 521.16649605 413.14009911 521.16705366 404.8921481 C521.1675289 398.18756133 521.16958403 391.48297691 521.17275429 384.77839088 C521.18156035 365.76798225 521.18617373 346.75757925 521.18542381 327.74716856 C521.18538386 326.72241202 521.1853439 325.69765548 521.18530273 324.6418457 C521.18526185 323.61583741 521.18522097 322.58982912 521.18517885 321.53272966 C521.18477238 304.90404216 521.19434226 288.2753773 521.2084411 271.64669635 C521.2228048 254.57084394 521.22971129 237.49500258 521.22884732 220.41914397 C521.22851536 210.83301036 521.23126243 201.24690049 521.24202538 191.66077232 C521.25113027 183.49912276 521.2533057 175.33750769 521.24651595 167.17585524 C521.24325072 163.01275163 521.24319421 158.84971421 521.2518692 154.6866169 C521.25973492 150.8726232 521.25830205 147.05874819 521.24958507 143.24475739 C521.24732535 141.21766265 521.25487817 139.19056422 521.26282471 137.1634838 C521.22462342 127.06248732 519.94196965 118.92496146 515.3125 109.9375 C514.95583252 109.24140625 514.59916504 108.5453125 514.23168945 107.828125 C507.40675776 94.89699471 495.91410979 85.68036548 482 81 C473.92012847 78.84869296 466.05018504 78.71530369 457.72924805 78.73930359 C456.30056147 78.73627841 454.87187652 78.7323871 453.44319439 78.72771102 C449.54012126 78.71746977 445.63714038 78.71960289 441.73405981 78.72389162 C437.51586268 78.72636585 433.29768735 78.71733613 429.07949829 78.70985413 C420.8250725 78.69712524 412.57067927 78.69531111 404.31624532 78.69765439 C397.60603934 78.69943944 390.89584323 78.6976839 384.18563843 78.69342995 C383.22960557 78.69283476 382.27357271 78.69223957 381.28856915 78.69162634 C379.3462398 78.69041456 377.40391046 78.68920043 375.46158111 78.68798397 C357.2601297 78.67711577 339.05869683 78.67926773 320.85724437 78.68536881 C304.21330679 78.69053946 287.56942771 78.67927734 270.9255017 78.66027059 C253.82352362 78.64089085 236.72157322 78.6326363 219.61958408 78.63639385 C210.02284888 78.63830541 200.42616349 78.63582252 190.82943726 78.62167931 C182.66130972 78.60976295 174.49326268 78.60836363 166.32513404 78.62046947 C162.15982527 78.62635584 157.99466372 78.62746421 153.82936478 78.61546707 C150.01234064 78.60460095 146.19558651 78.60772014 142.37857497 78.62172876 C140.35240782 78.62562133 138.32622864 78.6148347 136.30008984 78.60343188 C120.12592276 78.69905123 104.03674611 84.79801974 93 97 Z " fill="#FEFEFE" transform="translate(0,0)"/>
<path d="M0 0 C0.88041592 -0.00453111 1.76083184 -0.00906223 2.66792703 -0.01373065 C5.60014447 -0.02632929 8.53217509 -0.02475721 11.4644165 -0.02310181 C13.57418047 -0.0290899 15.68394225 -0.0358961 17.79370117 -0.04345703 C23.5128708 -0.06109598 29.23198054 -0.06581154 34.95117474 -0.0670886 C38.5279852 -0.068512 42.10478052 -0.07278519 45.68158722 -0.07808304 C58.1704047 -0.09657665 70.65917954 -0.10475452 83.14801025 -0.10317993 C94.77232991 -0.10197886 106.3964638 -0.12307635 118.02073646 -0.15466726 C128.01506665 -0.18085643 138.00933627 -0.19154611 148.00370049 -0.19026911 C153.9665202 -0.18976024 159.92917475 -0.19540214 165.89196014 -0.21662521 C171.50303057 -0.23605187 177.11377907 -0.23610164 182.72486115 -0.22159195 C184.77745537 -0.21950823 186.83006998 -0.2241785 188.88262939 -0.23631287 C205.70092464 -0.32925441 219.45003279 1.74011322 232.39508057 13.52133179 C242.25574401 23.79423033 247.24085816 35.64173803 247.17921448 49.74237061 C247.18304002 50.67713498 247.18686557 51.61189935 247.19080704 52.57498991 C247.20109877 55.69697282 247.19715215 58.81877049 247.19317627 61.94076538 C247.19752486 64.1833259 247.2027085 66.42588494 247.20866394 68.66844177 C247.22204944 74.753165 247.22263308 80.83782609 247.22010064 86.92256117 C247.21903061 92.00456543 247.22391514 97.08655714 247.22870606 102.16855872 C247.24043386 114.8445948 247.23957705 127.52059289 247.23314925 140.19662841 C247.22798125 151.19293344 247.23923381 162.18914986 247.25824747 173.18543737 C247.27764227 184.48922317 247.2855878 195.79296824 247.28212422 207.0967747 C247.28031192 213.43786311 247.28294234 219.77887036 247.29683876 226.11994553 C247.30941972 232.08388351 247.30747027 238.04764423 247.29442787 244.01157951 C247.29206313 246.19765851 247.29479308 248.38375 247.30305099 250.56981468 C247.31352864 253.55958575 247.30540932 256.54876315 247.29273987 259.53851318 C247.30011415 260.39854993 247.30748844 261.25858668 247.31508619 262.14468515 C247.2319785 271.50080493 244.54047601 279.49931873 237.94195557 286.30648804 C231.33960235 292.54582527 226.30264349 295.43892033 217.16070557 295.32992554 C216.17698975 295.3209021 215.19327393 295.31187866 214.17974854 295.30258179 C213.06043945 295.28517944 213.06043945 295.28517944 211.91851807 295.26742554 C211.93946533 295.89197632 211.9604126 296.5165271 211.98199463 297.16000366 C212.0658765 300.02897614 212.11740318 302.89768962 212.16851807 305.76742554 C212.2187915 307.24082397 212.2187915 307.24082397 212.27008057 308.74398804 C212.37039239 316.26737489 211.16770036 321.65493805 206.06695557 327.32601929 C205.48172119 327.78105835 204.89648682 328.23609741 204.29351807 328.70492554 C203.70312744 329.17801147 203.11273682 329.65109741 202.50445557 330.13851929 C197.6656562 333.58288632 191.61494264 332.76065254 185.91851807 332.26742554 C179.69167926 329.37639323 175.94799729 324.32638399 172.91851807 318.26742554 C172.91851807 310.67742554 172.91851807 303.08742554 172.91851807 295.26742554 C124.07851807 295.26742554 75.23851807 295.26742554 24.91851807 295.26742554 C24.91851807 302.52742554 24.91851807 309.78742554 24.91851807 317.26742554 C20.40280642 326.29884883 20.40280642 326.29884883 17.35601807 328.70492554 C16.777229 329.17801147 16.19843994 329.65109741 15.60211182 330.13851929 C10.7386596 333.39962762 4.51329252 332.79425443 -1.08148193 332.26742554 C-6.52247427 329.69532007 -10.60455599 325.35644394 -13.2098999 319.90731812 C-14.14078828 317.08779543 -14.31141666 314.92684485 -14.27679443 311.96664429 C-14.27034912 310.99017944 -14.26390381 310.0137146 -14.25726318 309.00765991 C-14.24050537 308.00025757 -14.22374756 306.99285522 -14.20648193 305.95492554 C-14.1974585 304.92818726 -14.18843506 303.90144897 -14.17913818 302.84359741 C-14.15564394 300.31796655 -14.12279324 297.79281744 -14.08148193 295.26742554 C-14.83171631 295.32543335 -15.58195068 295.38344116 -16.35491943 295.44320679 C-25.35757145 295.84004913 -31.32318758 294.12839448 -38.33929443 288.43539429 C-44.58378135 282.59414915 -48.7487143 276.03226066 -49.17690718 267.32752514 C-49.21941649 264.91717839 -49.22916754 262.50859695 -49.22865295 260.09786987 C-49.23232964 259.17172017 -49.23600633 258.24557046 -49.23979443 257.29135561 C-49.25081183 254.18636808 -49.25467185 251.08141404 -49.25848389 247.97640991 C-49.26475009 245.7504872 -49.27139703 243.52456554 -49.27839661 241.29864502 C-49.29942377 233.98616258 -49.30979893 226.67367997 -49.31976318 219.36117554 C-49.32381148 216.84136443 -49.32792843 214.32155344 -49.33211327 211.80174255 C-49.34898105 201.31709882 -49.36361472 190.83245622 -49.37086201 180.34780121 C-49.3727717 177.62927753 -49.37469206 174.91075387 -49.37664795 172.19223022 C-49.37737356 171.17879629 -49.37737356 171.17879629 -49.37811383 170.14488894 C-49.38640521 159.21257387 -49.41172814 148.28036853 -49.44422863 137.34810132 C-49.47737104 126.10764747 -49.49498506 114.86724716 -49.49850625 103.62673807 C-49.50085311 97.32233888 -49.50976629 91.01811315 -49.53496742 84.71376038 C-49.55831274 78.77771852 -49.56245526 72.84196354 -49.55220604 66.9058876 C-49.55171212 64.7343818 -49.55798992 62.56286157 -49.57176208 60.39139938 C-49.68066048 42.19425727 -47.67477675 27.73779701 -35.01898193 13.57992554 C-25.20522094 4.38785076 -13.25462419 -0.05074719 0 0 Z " fill="#FCFEFE" transform="translate(201.08148193359375,133.73257446289063)"/>
<path d="M0 0 C1.17127601 -0.00785502 1.17127601 -0.00785502 2.36621416 -0.01586872 C4.96753327 -0.0308005 7.5686545 -0.03157237 10.17001343 -0.03224182 C12.04155812 -0.03986803 13.91309968 -0.04829632 15.78463745 -0.0574646 C20.85932022 -0.07937411 25.93394275 -0.08820403 31.00866747 -0.09329104 C34.18362544 -0.09693958 37.35856776 -0.10318231 40.53351974 -0.11029243 C51.62296997 -0.13477706 62.7123735 -0.14783617 73.80184937 -0.15138245 C84.11685459 -0.15501432 94.43156165 -0.18488741 104.74647582 -0.22678703 C113.61894384 -0.26155579 122.4913134 -0.27693205 131.36384904 -0.27762848 C136.65551867 -0.27841921 141.94688457 -0.28706352 147.23848343 -0.31562614 C152.22089769 -0.3419189 157.20275884 -0.34394968 162.18521118 -0.3279705 C164.00518379 -0.32616476 165.82518903 -0.33276697 167.64509201 -0.34878922 C180.30987829 -0.45341459 192.8326123 0.24485654 202.53085327 9.60618591 C208.55163631 16.6496773 211.25925877 23.7046847 211.24716187 33.00437927 C211.25387909 33.75478989 211.26059631 34.5052005 211.26751709 35.27835083 C211.28642372 37.74446844 211.29041724 40.21031296 211.29257202 42.67649841 C211.29900401 44.39993398 211.30573267 46.12336845 211.31274414 47.84680176 C211.32469779 51.45371533 211.32842683 55.06053324 211.32723999 58.66746521 C211.32703667 63.27866275 211.35436063 67.8892449 211.38878441 72.50029659 C211.41106918 76.05804233 211.41507709 79.61564018 211.41402054 83.17344856 C211.41637328 84.87303861 211.42517835 86.57263293 211.44068527 88.27215385 C211.46038224 90.65338149 211.4544942 93.03328448 211.44247437 95.41453552 C211.45371338 96.10929993 211.46495239 96.80406433 211.47653198 97.5198822 C211.40720493 102.95148583 210.10606741 105.98075727 206.95663452 110.27415466 C201.86434436 113.60013494 197.52923014 113.70278779 191.65768433 113.66183472 C190.72982479 113.66722025 189.80196525 113.67260579 188.84598875 113.67815453 C185.74145915 113.69244528 182.63735525 113.68532756 179.5328064 113.6782074 C177.30522824 113.68391032 175.07765301 113.69087428 172.8500824 113.69900513 C166.80266495 113.71695888 160.75539242 113.71576409 154.70795631 113.71006274 C149.66050847 113.70697451 144.61308861 113.71305919 139.56564474 113.71910149 C126.97926352 113.73395537 114.39296969 113.73032701 101.80659503 113.71823818 C90.87930177 113.7083034 79.95217778 113.72125142 69.02491063 113.74517237 C57.79913396 113.76956132 46.57343411 113.77877212 35.3476243 113.77251965 C29.04739565 113.7691456 22.74730691 113.77159519 16.44709778 113.78877068 C10.52416892 113.80421283 4.60156393 113.80031434 -1.32135201 113.78146553 C-3.49578857 113.77777231 -5.67024899 113.78090936 -7.84466362 113.79135132 C-10.81162307 113.8045122 -13.77750259 113.79305683 -16.74441528 113.77536011 C-17.60609078 113.78496511 -18.46776628 113.79457012 -19.35555315 113.80446619 C-24.71711501 113.73860706 -27.80236614 112.85803087 -32.04336548 109.27415466 C-35.02682482 104.80828088 -35.48143829 100.81772893 -35.44741821 95.57566833 C-35.45428146 94.82847031 -35.46114471 94.08127228 -35.46821594 93.31143188 C-35.48643423 90.85479933 -35.48265268 88.39880868 -35.47695923 85.94212341 C-35.48152444 84.22347813 -35.48683102 82.50483467 -35.49284363 80.78619385 C-35.50176574 77.18762285 -35.4993631 73.58927386 -35.4894104 69.9907074 C-35.47794008 65.397606 -35.49810671 60.80527565 -35.52732754 56.21227551 C-35.54575046 52.66300653 -35.54538469 49.11392009 -35.53969002 45.56461525 C-35.53953745 43.87227105 -35.54552813 42.17991397 -35.55798149 40.48761559 C-35.66434961 23.65963467 -35.66434961 23.65963467 -31.04336548 16.27415466 C-30.37434204 15.07726013 -30.37434204 15.07726013 -29.69180298 13.85618591 C-22.54415167 3.92402014 -11.99699038 -0.04036439 0 0 Z " fill="#0096DB" transform="translate(212.04336547851563,197.72584533691406)"/>
<path d="M0 0 C5.87009098 3.60525273 9.2506239 8.34612306 11 15 C12.03077949 23.32822976 10.5475508 29.17867381 5.875 36.1875 C1.75150924 40.73797945 -3.1801453 42.63069222 -9.19140625 43.41796875 C-16.47383881 43.73019355 -21.53458902 42.95497396 -27 38 C-32.53653168 32.67402993 -34.99613202 27.87995403 -35.375 20.125 C-35.19406442 13.02593917 -32.45040228 8.31512903 -27.6875 3.1875 C-19.43105335 -4.50680561 -9.80587397 -4.65602649 0 0 Z " fill="#0196DB" transform="translate(217,345)"/>
<path d="M0 0 C5.89945599 3.39194422 9.37536233 8.68858699 11.5 15.0625 C12.27651413 22.1147759 11.47001223 28.09089386 7.5 34.0625 C2.8136468 39.18911603 -1.7202527 42.58774913 -8.734375 43.46875 C-15.85375954 43.65860025 -20.94491021 43.3986365 -26.66015625 38.91796875 C-31.81947395 33.71483519 -34.62676342 28.165616 -34.75 20.8125 C-34.65668087 12.94258711 -31.99844883 7.68591358 -26.5 2.0625 C-19.04109443 -3.9681045 -8.61686603 -3.75439851 0 0 Z " fill="#0296DB" transform="translate(406.5,344.9375)"/>
<path d="M0 0 C37.29 0 74.58 0 113 0 C113 4.62 113 9.24 113 14 C75.71 14 38.42 14 0 14 C0 9.38 0 4.76 0 0 Z " fill="#0795D5" transform="translate(243,155)"/>
</svg>